<?xml version="1.0" encoding="UTF-8" standalone="no"?>
<svg
   xmlns:dc="http://purl.org/dc/elements/1.1/"
   xmlns:cc="http://creativecommons.org/ns#"
   xmlns:rdf="http://www.w3.org/1999/02/22-rdf-syntax-ns#"
   xmlns:svg="http://www.w3.org/2000/svg"
   xmlns="http://www.w3.org/2000/svg"
   xmlns:sodipodi="http://sodipodi.sourceforge.net/DTD/sodipodi-0.dtd"
   xmlns:inkscape="http://www.inkscape.org/namespaces/inkscape"
   viewBox="0 0 1024 1024"
   version="1.1"
   id="svg6"
   sodipodi:docname="desert-eagle.svg"
   inkscape:version="0.92.4 (5da689c313, 2019-01-14)"
   width="1024"
   height="1024"
   inkscape:export-filename="C:\Users\sardylan\Documents\hnt\desert-eagle.png"
   inkscape:export-xdpi="96"
   inkscape:export-ydpi="96">
  <metadata
     id="metadata12">
    <rdf:RDF>
      <cc:Work
         rdf:about="">
        <dc:format>image/svg+xml</dc:format>
        <dc:type
           rdf:resource="http://purl.org/dc/dcmitype/StillImage" />
        <dc:title></dc:title>
      </cc:Work>
    </rdf:RDF>
  </metadata>
  <defs
     id="defs10" />
  <sodipodi:namedview
     pagecolor="#ffffff"
     bordercolor="#666666"
     borderopacity="1"
     objecttolerance="10"
     gridtolerance="10"
     guidetolerance="10"
     inkscape:pageopacity="0"
     inkscape:pageshadow="2"
     inkscape:window-width="1920"
     inkscape:window-height="1017"
     id="namedview8"
     showgrid="false"
     inkscape:zoom="0.4609375"
     inkscape:cx="541.06539"
     inkscape:cy="462.254"
     inkscape:window-x="-8"
     inkscape:window-y="-8"
     inkscape:window-maximized="1"
     inkscape:current-layer="svg6"
     fit-margin-top="0"
     fit-margin-left="0"
     fit-margin-right="0"
     fit-margin-bottom="0" />
  <g
     id="g4531"
     transform="scale(2)">
    <rect
       y="0"
       x="0"
       height="512"
       width="512"
       id="rect4526"
       style="opacity:1;fill:#008080" />
    <g
       style="fill:#ffffff"
       id="g4"
       transform="translate(21.253533,1.6195043)"
       class="">
      <path
         style="fill:#ffffff;fill-opacity:1"
         inkscape:connector-curvature="0"
         id="path2"
         transform="rotate(-15,256,256)"
         d="m 440.225,129.522 h 31.64 V 115.87 H 460.02 Z m -392.75,36.293 v -0.084 a 0.483,0.483 0 0 1 0,-0.084 0.179,0.179 0 0 0 0,-0.126 l -0.084,-0.336 a 13.358,13.358 0 0 0 -0.913,-2.321 22.62,22.62 0 0 0 -1.975,-3.308 22.389,22.389 0 0 0 -1.396,-1.775 c -0.263,-0.294 -0.515,-0.598 -0.788,-0.892 l -0.861,-0.84 a 22.861,22.861 0 0 0 -1.859,-1.618 c -0.63,-0.546 -1.323,-0.945 -1.995,-1.417 -0.672,-0.473 -1.365,-0.788 -2.027,-1.177 a 16.802,16.802 0 0 0 -1.943,-0.913 c -0.62,-0.252 -1.197,-0.546 -1.722,-0.693 l -1.375,-0.441 -1.23,-0.378 1.23,-0.389 1.438,-0.441 c 0.567,-0.189 1.208,-0.273 1.922,-0.441 a 19.627,19.627 0 0 1 2.352,-0.389 c 0.84,-0.073 1.765,-0.22 2.71,-0.23 0.945,-0.011 1.963,-0.064 2.972,0 a 31.02,31.02 0 0 1 3.15,0.314 l 1.586,0.263 c 0.525,0.105 1.05,0.231 1.554,0.357 1.05,0.231 2.048,0.557 3.035,0.872 0.987,0.315 1.795,0.65 2.636,1.05 a 51.393,51.393 0 0 0 -5.146,14.555 z m 158.76,93.671 c 0.167,1.44 0.377,2.815 0.64,4.117 a 29.55,29.55 0 0 0 0.966,3.57 15.258,15.258 0 0 0 1.281,2.825 7.193,7.193 0 0 0 0.725,1.05 5.954,5.954 0 0 0 0.724,0.84 l 0.672,0.61 c 0.22,0.147 0.42,0.262 0.578,0.357 l 0.493,0.304 -0.567,-0.115 c -0.189,0 -0.43,-0.084 -0.703,-0.158 l -0.903,-0.367 a 6.72,6.72 0 0 1 -1.05,-0.599 8.401,8.401 0 0 1 -1.187,-0.872 17.338,17.338 0 0 1 -2.457,-2.52 32.838,32.838 0 0 1 -2.384,-3.392 53.451,53.451 0 0 1 -2.205,-4.032 91.498,91.498 0 0 1 -3.844,-9.137 143.14,143.14 0 0 1 -2.468,-7.434 22.82,22.82 0 0 1 11.552,-3.833 c -0.2,3.066 -0.336,6.3 -0.326,9.64 a 84.61,84.61 0 0 0 0.462,9.146 z m 34.654,28.89 a 9.073,9.073 0 0 0 9.073,-9.074 v -38.56 h 5.954 v 44.525 a 9.073,9.073 0 0 1 -9.073,9.073 h -65.381 l 1.365,-5.954 h 58.051 z m 236.49,-81.837 H 54.017 C 44.566,217.04 26,219.886 26,225.44 c 0,6.816 52.076,-8.4 50.973,30.601 -1.722,60.782 -31.703,60.792 -35.988,125.732 a 13.463,13.463 0 0 0 13.41,14.356 h 74.402 a 16.172,16.172 0 0 0 15.847,-12.98 c 10.312,-51.162 22.231,-98.838 30.916,-139.059 3.024,-14.019 20.456,-20.152 30.538,-20.152 h 236.51 a 43.37,43.37 0 0 0 34.77,-17.4 z M 101.724,355.962 a 11.961,11.961 0 1 1 -11.961,11.961 11.961,11.961 0 0 1 11.961,-11.96 z m 27.45,-70.81 a 11.961,11.961 0 1 1 -11.96,-11.961 11.961,11.961 0 0 1 11.971,11.96 z M 87.17,146.324 H 472.663 A 13.379,13.379 0 0 1 486,159.703 v 20.803 a 43.57,43.57 0 0 1 -0.998,9.23 H 60.15 c 1.344,-5.397 4.043,-16.444 4.946,-21.307 2.248,-12.003 9.903,-22.105 22.116,-22.105 z" />
    </g>
  </g>
</svg>
